<svg width="43" height="43" viewBox="0 0 43 43" fill="none" xmlns="http://www.w3.org/2000/svg">
<path d="M16.7222 18.1111H15.7222V19.1111V23.8889V24.8889H16.7222H18.1111V33.4444V34.4444H19.1111H26.2778H27.2778V33.4444V28.6667V27.6667H26.2778H24.8889V19.1111V18.1111H23.8889H16.7222ZM19.1111 8.55556H18.1111V9.55556V14.3333V15.3333H19.1111H23.8889H24.8889V14.3333V9.55556V8.55556H23.8889H19.1111ZM40.6111 42H2.38889C2.02053 42 1.66726 41.8537 1.40679 41.5932C1.14633 41.3327 1 40.9795 1 40.6111V2.38889C1 2.02053 1.14633 1.66726 1.4068 1.4068C1.66726 1.14633 2.02053 1 2.38889 1H40.6111C40.9795 1 41.3327 1.14633 41.5932 1.4068C41.8537 1.66726 42 2.02053 42 2.38889V40.6111C42 40.9795 41.8537 41.3327 41.5932 41.5932C41.3327 41.8537 40.9795 42 40.6111 42Z" fill="#5F5CEE" stroke="black" stroke-width="2"/>
</svg>
