<svg width="43" height="37" viewBox="0 0 43 37" fill="none" xmlns="http://www.w3.org/2000/svg">
<path d="M41.4643 5.79592H1.53571C1.22395 5.79592 1 5.55181 1 5.28571V1.5102C1 1.24411 1.22395 1 1.53571 1H41.4643C41.7761 1 42 1.24411 42 1.5102V5.28571C42 5.55181 41.7761 5.79592 41.4643 5.79592ZM41.4643 20.898H1.53571C1.22395 20.898 1 20.6538 1 20.3878V16.6122C1 16.3462 1.22395 16.102 1.53571 16.102H41.4643C41.7761 16.102 42 16.3461 42 16.6122V20.3878C42 20.6538 41.7761 20.898 41.4643 20.898ZM41.4643 36H1.53571C1.22395 36 1 35.7559 1 35.4898V31.7143C1 31.4482 1.22395 31.2041 1.53571 31.2041H41.4643C41.7761 31.2041 42 31.4482 42 31.7143V35.4898C42 35.7559 41.7761 36 41.4643 36Z" fill="#1EC4E9" stroke="black" stroke-width="2"/>
</svg>
